<svg width="51" height="51" viewBox="0 0 51 51" fill="none" xmlns="http://www.w3.org/2000/svg">
<path d="M48.45 36.975V14.025C48.45 11.9085 46.7415 10.2 44.625 10.2H8.89949C6.78299 10.2 5.07449 11.9085 5.07449 14.025V36.975C5.07449 39.0914 6.78299 40.7999 8.89949 40.7999H44.625C46.7415 40.7999 48.45 39.0914 48.45 36.975ZM45.1095 13.7445C45.951 14.586 45.492 15.453 45.033 15.8865L34.68 25.3725L44.625 35.7255C44.931 36.0825 45.135 36.6435 44.778 37.026C44.4465 37.434 43.6815 37.4084 43.35 37.1535L32.2065 27.642L26.7495 32.6145L21.318 27.642L10.1745 37.1535C9.84299 37.4084 9.07799 37.434 8.74649 37.026C8.38949 36.6435 8.59349 36.0825 8.89949 35.7255L18.8445 25.3725L8.49149 15.8865C8.03249 15.453 7.57349 14.586 8.41499 13.7445C9.25649 12.903 10.1235 13.311 10.8375 13.923L26.7495 26.775L42.687 13.923C43.401 13.311 44.268 12.903 45.1095 13.7445Z" fill="white"/>
</svg>
