<svg width="37" height="37" viewBox="0 0 37 37" fill="none" xmlns="http://www.w3.org/2000/svg">
<g clip-path="url(#clip0_1_1812)">
<path fill-rule="evenodd" clip-rule="evenodd" d="M0 18.6033C0 27.8009 6.68004 35.4491 15.4167 37V23.6384H10.7917V18.5H15.4167V14.3884C15.4167 9.76338 18.3967 7.19496 22.6116 7.19496C23.9467 7.19496 25.3866 7.4 26.7217 7.60504V12.3333H24.3583C22.0967 12.3333 21.5833 13.4634 21.5833 14.9033V18.5H26.5167L25.695 23.6384H21.5833V37C30.32 35.4491 37 27.8024 37 18.6033C37 8.37125 28.675 0 18.5 0C8.325 0 0 8.37125 0 18.6033Z" fill="white"/>
</g>
<defs>
<clipPath id="clip0_1_1812">
<rect width="37" height="37" fill="white"/>
</clipPath>
</defs>
</svg>
