<svg width="43" height="43" viewBox="0 0 43 43" fill="none" xmlns="http://www.w3.org/2000/svg">
<path d="M21.5 15.9026C18.4178 15.9026 15.9025 18.4179 15.9025 21.5001C15.9025 24.5824 18.4178 27.0977 21.5 27.0977C24.5822 27.0977 27.0976 24.5824 27.0976 21.5001C27.0976 18.4179 24.5822 15.9026 21.5 15.9026ZM38.2885 21.5001C38.2885 19.1822 38.3095 16.8852 38.1793 14.5714C38.0491 11.8839 37.4361 9.49876 35.4708 7.53352C33.5014 5.56409 31.1204 4.9552 28.4329 4.82503C26.115 4.69485 23.818 4.71585 21.5042 4.71585C19.1862 4.71585 16.8893 4.69485 14.5755 4.82503C11.888 4.9552 9.50285 5.56829 7.53761 7.53352C5.56818 9.50296 4.95929 11.8839 4.82912 14.5714C4.69894 16.8894 4.71994 19.1864 4.71994 21.5001C4.71994 23.8139 4.69894 26.1151 4.82912 28.4288C4.95929 31.1163 5.57238 33.5015 7.53761 35.4667C9.50705 37.4362 11.888 38.045 14.5755 38.1752C16.8935 38.3054 19.1904 38.2844 21.5042 38.2844C23.8222 38.2844 26.1192 38.3054 28.4329 38.1752C31.1204 38.045 33.5056 37.432 35.4708 35.4667C37.4403 33.4973 38.0491 31.1163 38.1793 28.4288C38.3137 26.1151 38.2885 23.8181 38.2885 21.5001ZM21.5 30.1127C16.7339 30.1127 12.8874 26.2662 12.8874 21.5001C12.8874 16.734 16.7339 12.8875 21.5 12.8875C26.2661 12.8875 30.1126 16.734 30.1126 21.5001C30.1126 26.2662 26.2661 30.1127 21.5 30.1127ZM30.4653 14.5462C29.3526 14.5462 28.4539 13.6476 28.4539 12.5348C28.4539 11.422 29.3526 10.5234 30.4653 10.5234C31.5781 10.5234 32.4768 11.422 32.4768 12.5348C32.4771 12.799 32.4253 13.0607 32.3243 13.3049C32.2234 13.5491 32.0752 13.771 31.8884 13.9578C31.7015 14.1447 31.4797 14.2928 31.2355 14.3938C30.9913 14.4948 30.7296 14.5466 30.4653 14.5462Z" fill="#FFF4F4"/>
</svg>
