<svg width="35" height="35" viewBox="0 0 35 35" fill="none" xmlns="http://www.w3.org/2000/svg">
<path d="M28.1765 8.11125C27.955 7.99669 27.7393 7.87112 27.5304 7.735C26.9233 7.33355 26.3665 6.86058 25.8723 6.32625C24.6342 4.91021 24.1719 3.47375 24.0027 2.46896H24.0085C23.8671 1.63333 23.9254 1.09375 23.9356 1.09375H18.2992V22.8856C18.2992 23.1773 18.2992 23.4675 18.2875 23.7533C18.2875 23.7883 18.2831 23.8204 18.2817 23.8598C18.2817 23.8744 18.2817 23.8919 18.2773 23.9079V23.921C18.2181 24.7027 17.9677 25.4579 17.5481 26.1201C17.1285 26.7823 16.5526 27.3312 15.871 27.7185C15.16 28.1231 14.3558 28.3352 13.5377 28.334C10.9127 28.334 8.78354 26.1931 8.78354 23.5492C8.78354 20.9037 10.9127 18.7629 13.5377 18.7629C14.035 18.7629 14.5294 18.8417 15.0019 18.9962L15.0092 13.2562C13.5742 13.0711 12.1164 13.1855 10.7278 13.5921C9.33928 13.9987 8.0501 14.6888 6.94166 15.6187C5.9702 16.4625 5.15343 17.4692 4.52812 18.5938C4.29041 19.0035 3.39208 20.6529 3.28416 23.3275C3.21562 24.8442 3.67208 26.4192 3.88937 27.0681V27.0827C4.025 27.4648 4.55583 28.7715 5.41916 29.8725C6.11536 30.7563 6.93794 31.5326 7.86041 32.1767V32.1621L7.87354 32.1767C10.6006 34.0287 13.6267 33.9077 13.6267 33.9077C14.1502 33.8858 15.9046 33.9077 17.8967 32.9642C20.106 31.9171 21.3631 30.3581 21.3631 30.3581C22.1668 29.4264 22.806 28.3646 23.2531 27.2183C23.7635 25.8767 23.9327 24.2696 23.9327 23.6279V12.0648C24.0012 12.1056 24.9127 12.7079 24.9127 12.7079C24.9127 12.7079 26.2252 13.5494 28.2712 14.0962C29.7383 14.4856 31.7173 14.5687 31.7173 14.5687V8.97312C31.0246 9.04896 29.6173 8.83021 28.175 8.11271L28.1765 8.11125Z" fill="white"/>
</svg>
